<?xml version="1.0" encoding="utf-8"?>
<svg viewBox="0 0 500 500" xmlns="http://www.w3.org/2000/svg">
  <path d="M 343.33 144.024 L 341.235 144.024 L 341.235 86.601 C 341.235 68.247 326.355 53.368 308.001 53.368 L 186.347 53.368 C 167.993 53.368 153.113 68.247 153.113 86.601 L 153.113 401.617 C 153.113 419.971 167.993 434.85 186.347 434.85 L 308.001 434.85 C 326.355 434.85 341.235 419.972 341.235 401.617 L 341.235 184.897 L 343.33 184.897 L 343.33 144.024 Z" style="fill: rgb(5, 16, 35);"/>
  <path d="M 334.162 86.834 L 334.162 401.385 C 334.162 415.093 323.049 426.206 309.342 426.206 L 187.103 426.206 C 173.396 426.206 162.284 415.093 162.284 401.385 L 162.284 86.834 C 162.284 73.126 173.396 62.013 187.103 62.013 L 201.933 62.013 C 198.777 69.77 204.478 78.253 212.852 78.259 L 282.546 78.259 C 290.918 78.253 296.62 69.77 293.464 62.013 L 309.342 62.013 C 323.049 62.013 334.162 73.126 334.162 86.834 Z" style="" fill="#fff"/>
  <path d="M 294.783 222.467 C 293.969 222.891 293.143 223.293 292.303 223.673 C 291.536 224.018 290.76 224.343 289.969 224.647 C 289.681 224.757 289.39 224.867 289.094 224.977 C 286.774 225.82 284.39 226.476 281.966 226.944 C 280.767 227.18 279.55 227.364 278.317 227.498 C 277.301 227.615 276.274 227.696 275.236 227.746 C 274.496 227.782 273.756 227.798 273.013 227.798 C 270.065 227.799 267.125 227.524 264.229 226.974 C 263.473 226.838 262.734 226.676 261.995 226.497 C 258.42 225.641 254.959 224.364 251.684 222.693 C 251.391 222.546 251.097 222.388 250.803 222.236 C 250.369 222.005 249.944 221.765 249.519 221.512 C 249.723 221.23 249.944 220.953 250.17 220.679 C 260.563 207.799 279.839 206.797 291.511 218.53 C 292.467 219.489 293.354 220.518 294.163 221.602 C 294.378 221.885 294.582 222.174 294.783 222.467 Z" fill="#f1c766" style=""/>
  <circle cx="274.058" cy="176.426" r="23.017" fill="#2f2e41" style=""/>
  <circle cx="642.499" cy="327.462" r="17.13" transform="matrix(0.877455, -0.479659, 0.479659, 0.877455, -448.868896, 205.290726)" fill="#a0616a" style=""/>
  <path d="M 289.964 173.668 C 286.049 176.366 281.404 177.801 276.649 177.783 C 278.345 178.958 280.276 179.752 282.307 180.111 C 275.987 181.466 269.454 181.503 263.119 180.219 C 261.71 179.992 260.35 179.526 259.101 178.838 C 257.842 178.135 256.94 176.931 256.621 175.523 C 256.201 173.117 258.074 170.933 260.022 169.458 C 266.061 164.963 273.799 163.416 281.103 165.247 C 283.457 165.855 285.817 166.883 287.346 168.775 C 288.876 170.667 289.328 173.581 287.871 175.529 L 289.964 173.668 Z" fill="#2f2e41" style=""/>
  <path d="M 273.013 133.447 C 236.703 133.442 214.003 172.744 232.154 204.192 C 236.104 211.039 241.711 216.782 248.46 220.895 L 248.765 221.072 C 249.017 221.225 249.268 221.372 249.519 221.512 C 249.944 221.765 250.369 222.005 250.803 222.236 C 251.097 222.388 251.391 222.546 251.684 222.693 C 254.959 224.364 258.42 225.641 261.995 226.497 C 262.734 226.676 263.473 226.838 264.229 226.974 C 267.125 227.524 270.065 227.799 273.013 227.798 C 273.756 227.798 274.496 227.782 275.236 227.746 C 276.274 227.699 277.301 227.616 278.317 227.498 C 279.551 227.363 280.767 227.178 281.966 226.944 C 284.39 226.476 286.774 225.82 289.094 224.977 C 289.39 224.867 289.681 224.757 289.969 224.647 C 290.762 224.343 291.539 224.018 292.303 223.673 C 293.142 223.295 293.967 222.893 294.783 222.467 C 302.943 218.193 309.687 211.644 314.197 203.613 C 314.218 203.571 314.245 203.528 314.265 203.486 C 316.672 199.168 318.38 194.495 319.323 189.644 C 324.977 160.521 302.679 133.462 273.013 133.447 Z M 313.405 202.874 C 313.363 202.947 313.327 203.02 313.285 203.089 C 308.865 211.001 302.215 217.439 294.163 221.602 C 293.36 222.022 292.546 222.415 291.715 222.782 C 291.029 223.09 290.327 223.384 289.618 223.658 C 289.32 223.772 289.017 223.886 288.712 223.992 C 286.707 224.724 284.652 225.314 282.563 225.753 C 281.014 226.082 279.448 226.331 277.872 226.492 C 276.902 226.597 275.917 226.671 274.926 226.708 C 274.291 226.734 273.653 226.749 273.013 226.749 C 270.16 226.753 267.314 226.488 264.512 225.959 C 262.805 225.644 261.12 225.23 259.463 224.721 C 256.938 223.942 254.486 222.946 252.13 221.748 C 251.857 221.608 251.585 221.466 251.316 221.319 C 250.935 221.114 250.547 220.905 250.17 220.679 C 249.887 220.523 249.604 220.354 249.326 220.186 C 249.162 220.092 249.001 219.992 248.837 219.893 C 218.556 201.295 219.761 156.892 251.008 139.965 C 282.253 123.04 320.106 146.285 319.142 181.809 C 318.942 189.188 316.975 196.411 313.405 202.874 Z" fill="#3f3d56" style=""/>
  <path d="M 262.404 153.727 C 262.156 151.122 258.966 149.519 256.47 150.306 C 253.977 151.092 252.338 153.604 251.844 156.173 C 251.361 158.356 251.77 160.643 252.979 162.527 C 254.24 164.341 256.556 165.474 258.719 165.013 C 261.186 164.487 262.894 162.078 263.385 159.604 C 263.872 157.129 263.388 154.577 262.902 152.101 L 262.404 153.727 Z" fill="#2f2e41" style=""/>
  <path d="M 297.514 157.447 C 297.267 154.842 294.077 153.239 291.58 154.025 C 289.087 154.812 287.449 157.324 286.954 159.893 C 286.472 162.077 286.882 164.364 288.089 166.248 C 289.35 168.061 291.667 169.194 293.829 168.734 C 296.295 168.209 298.005 165.798 298.494 163.324 C 298.983 160.849 298.498 158.298 298.014 155.822 L 297.514 157.447 Z" fill="#2f2e41" style=""/>
  <path d="M 191.472 199.476 C 190.811 199.476 190.181 199.197 189.738 198.708 L 163.727 170.334 C 163.13 169.683 162.289 169.313 161.406 169.312 L 23.958 169.312 C 19.615 169.308 16.095 165.788 16.091 161.444 L 16.091 111.878 C 16.095 107.534 19.615 104.015 23.958 104.01 L 202.033 104.01 C 206.376 104.015 209.896 107.534 209.9 111.878 L 209.9 161.444 C 209.896 165.788 206.376 169.308 202.033 169.312 L 196.984 169.312 C 195.247 169.314 193.838 170.722 193.837 172.459 L 193.837 197.113 C 193.84 198.088 193.242 198.964 192.332 199.312 C 192.057 199.419 191.765 199.476 191.472 199.476 Z" fill="#fff" style=""/>
  <path d="M 191.472 199.476 C 190.811 199.476 190.181 199.197 189.738 198.708 L 163.727 170.334 C 163.13 169.683 162.289 169.313 161.406 169.312 L 23.958 169.312 C 19.615 169.308 16.095 165.788 16.091 161.444 L 16.091 111.878 C 16.095 107.534 19.615 104.015 23.958 104.01 L 202.033 104.01 C 206.376 104.015 209.896 107.534 209.9 111.878 L 209.9 161.444 C 209.896 165.788 206.376 169.308 202.033 169.312 L 196.984 169.312 C 195.247 169.314 193.838 170.722 193.837 172.459 L 193.837 197.113 C 193.84 198.088 193.242 198.964 192.332 199.312 C 192.057 199.419 191.765 199.476 191.472 199.476 Z M 23.958 105.058 C 20.195 105.063 17.143 108.114 17.139 111.878 L 17.139 161.444 C 17.143 165.21 20.195 168.259 23.958 168.265 L 161.406 168.265 C 162.582 168.266 163.704 168.758 164.499 169.624 L 190.51 197.999 C 191.193 198.744 192.424 198.471 192.727 197.508 C 192.768 197.38 192.789 197.246 192.789 197.113 L 192.789 172.459 C 192.791 170.144 194.668 168.267 196.984 168.265 L 202.033 168.265 C 205.798 168.259 208.848 165.21 208.852 161.444 L 208.852 111.878 C 208.848 108.114 205.798 105.063 202.033 105.058 L 23.958 105.058 Z" fill="#3f3d56" style=""/>
  <circle cx="35.389" cy="118.992" r="6.884" fill="#f1c766" style=""/>
  <path d="M 194.002 157.084 L 31.99 157.084 C 29.164 157.088 27.393 154.03 28.803 151.581 C 29.459 150.442 30.674 149.74 31.99 149.741 L 194.002 149.741 C 196.828 149.745 198.592 152.806 197.174 155.253 C 196.518 156.385 195.311 157.083 194.002 157.084 Z" fill="#e6e6e6" style=""/>
  <path d="M 141.222 141.479 L 31.99 141.479 C 29.164 141.483 27.393 138.426 28.803 135.976 C 29.459 134.837 30.674 134.135 31.99 134.136 L 141.222 134.136 C 144.047 134.136 145.815 137.197 144.401 139.644 C 143.746 140.78 142.534 141.479 141.222 141.479 Z" fill="#e6e6e6" style=""/>
  <path d="M 307.042 367.573 C 306.133 367.223 305.534 366.348 305.537 365.373 L 305.537 340.719 C 305.536 338.982 304.127 337.574 302.391 337.572 L 297.341 337.572 C 292.999 337.567 289.478 334.048 289.474 329.705 L 289.474 280.137 C 289.478 275.795 292.999 272.276 297.341 272.27 L 475.417 272.27 C 479.76 272.276 483.28 275.795 483.284 280.137 L 483.284 329.705 C 483.28 334.048 479.76 337.567 475.417 337.572 L 337.968 337.572 C 337.085 337.573 336.244 337.943 335.647 338.592 L 309.638 366.968 C 309.193 367.456 308.565 367.735 307.905 367.735 C 307.609 367.735 307.317 367.681 307.042 367.573 Z" fill="#fff" style=""/>
  <path d="M 307.042 367.573 C 306.133 367.223 305.534 366.348 305.537 365.373 L 305.537 340.719 C 305.536 338.982 304.127 337.574 302.391 337.572 L 297.341 337.572 C 292.999 337.567 289.478 334.048 289.474 329.705 L 289.474 280.137 C 289.478 275.795 292.999 272.276 297.341 272.27 L 475.417 272.27 C 479.76 272.276 483.28 275.795 483.284 280.137 L 483.284 329.705 C 483.28 334.048 479.76 337.567 475.417 337.572 L 337.968 337.572 C 337.085 337.573 336.244 337.943 335.647 338.592 L 309.638 366.968 C 309.193 367.456 308.565 367.735 307.905 367.735 C 307.609 367.735 307.317 367.681 307.042 367.573 Z M 297.341 273.318 C 293.577 273.322 290.527 276.373 290.523 280.137 L 290.523 329.705 C 290.527 333.469 293.577 336.519 297.341 336.523 L 302.391 336.523 C 304.706 336.525 306.583 338.402 306.585 340.719 L 306.585 365.373 C 306.585 366.383 307.679 367.014 308.553 366.509 C 308.67 366.443 308.775 366.358 308.864 366.259 L 334.876 337.883 C 335.671 337.019 336.793 336.525 337.968 336.523 L 475.417 336.523 C 479.181 336.519 482.232 333.469 482.236 329.705 L 482.236 280.137 C 482.232 276.373 479.181 273.322 475.417 273.318 L 297.341 273.318 Z" fill="#3f3d56" style=""/>
  <path d="M 251.539 382.921 C 236.643 392.459 217.639 392.762 202.449 383.703 C 203.759 381.265 205.418 379.029 207.376 377.071 C 220.315 364.072 242.05 366.81 251.358 382.613 C 251.417 382.712 251.48 382.817 251.539 382.921 Z" fill="#f1c766" style=""/>
  <circle cx="224.945" cy="334.686" r="23.169" fill="#2f2e41" style=""/>
  <circle cx="556.819" cy="629.489" r="17.244" transform="matrix(0.479659, -0.877455, 0.877455, 0.479659, -592.377441, 529.400574)" fill="#ffb8b8" style=""/>
  <path d="M 208.933 331.91 C 212.873 334.626 217.551 336.072 222.337 336.052 C 220.629 337.237 218.686 338.036 216.641 338.396 C 223.002 339.761 229.58 339.797 235.959 338.505 C 237.376 338.278 238.744 337.808 240.001 337.116 C 241.27 336.408 242.176 335.194 242.497 333.779 C 242.922 331.357 241.035 329.156 239.075 327.675 C 232.995 323.147 225.205 321.592 217.853 323.433 C 215.483 324.047 213.109 325.082 211.569 326.986 C 210.029 328.889 209.573 331.824 211.04 333.784 L 208.933 331.91 Z" fill="#2f2e41" style=""/>
  <path d="M 226.362 390.816 C 190.057 390.804 167.38 351.497 185.541 320.062 C 203.704 288.627 249.084 288.641 267.226 320.087 C 279.816 341.907 273.033 369.771 251.821 383.363 C 244.223 388.235 235.386 390.822 226.362 390.816 Z M 226.362 297.512 C 190.849 297.509 168.651 335.951 186.405 366.706 C 204.157 397.462 248.547 397.466 266.306 366.713 C 270.358 359.699 272.489 351.74 272.489 343.64 C 272.459 318.177 251.825 297.542 226.362 297.512 Z" fill="#3f3d56" style=""/>
  <circle cx="311.629" cy="286.727" r="6.884" fill="#f1c766" style=""/>
  <path d="M 470.242 324.821 L 308.228 324.821 C 305.403 324.824 303.632 321.766 305.042 319.316 C 305.7 318.177 306.914 317.476 308.228 317.477 L 470.242 317.477 C 473.068 317.477 474.834 320.536 473.422 322.985 C 472.766 324.12 471.553 324.821 470.242 324.821 Z" fill="#e6e6e6" style=""/>
  <path d="M 417.462 309.216 L 308.228 309.216 C 305.403 309.219 303.632 306.162 305.042 303.712 C 305.7 302.573 306.914 301.871 308.228 301.873 L 417.462 301.873 C 420.287 301.876 422.05 304.938 420.634 307.383 C 419.978 308.516 418.77 309.214 417.462 309.216 Z" fill="#e6e6e6" style=""/>
</svg>